<svg xmlns="http://www.w3.org/2000/svg" version="1.1" width="673" height="360"><defs><clipPath id="highcharts-5"><rect rx="0" ry="0" fill="none" x="0" y="0" width="0" height="258" stroke-width="0"/></clipPath><linearGradient id="highcharts-6" gradientUnits="userSpaceOnUse" x1="0" y1="0" x2="0" y2="20"><stop offset="0.4" stop-color="#F7F7F7" stop-opacity="1"/><stop offset="0.6" stop-color="#E3E3E3" stop-opacity="1"/></linearGradient><linearGradient id="highcharts-7" gradientUnits="userSpaceOnUse" x1="0" y1="0" x2="0" y2="20"><stop offset="0.4" stop-color="#F7F7F7" stop-opacity="1"/><stop offset="0.6" stop-color="#E3E3E3" stop-opacity="1"/></linearGradient></defs><rect rx="5" ry="5" fill="#FFFFFF" x="0" y="0" width="673" height="360" stroke-width="0" stroke="#4572A7"/><text x="337" y="25" style="font-family:&quot;Lucida Grande&quot;, &quot;Lucida Sans Unicode&quot;, Verdana, Arial, Helvetica, sans-serif;font-size:16px;color:#3E576F;fill:#3E576F;" text-anchor="middle" class="highcharts-title" zIndex="1"><tspan x="337">Chart title</tspan></text><g class="highcharts-grid" zIndex="1"/><g class="highcharts-grid" zIndex="1"><path d="M 52 298.5 L 663 298.5" fill="none" stroke="#C0C0C0" stroke-width="1" zIndex="1"/><path d="M 52 234.5 L 663 234.5" fill="none" stroke="#C0C0C0" stroke-width="1" zIndex="1"/><path d="M 52 169.5 L 663 169.5" fill="none" stroke="#C0C0C0" stroke-width="1" zIndex="1"/><path d="M 52 105.5 L 663 105.5" fill="none" stroke="#C0C0C0" stroke-width="1" zIndex="1"/><path d="M 52 40.5 L 663 40.5" fill="none" stroke="#C0C0C0" stroke-width="1" zIndex="1"/></g><g class="highcharts-series-group" zIndex="3"><g class="highcharts-series" clip-path="url(http://www.localhost.com/opentaps/organization/9/?lang=ka#highcharts-5)" visibility="visible" zIndex="9999999" transform="translate(52, 40)"><path d="M 5.990196078431373 193.5 L 155.7450980392157 125.775 L 305.5 10.900499999999994 L 455.2549019607843 109.65 L 605.0098039215686 129" fill="none" stroke="rgb(0, 0, 0)" stroke-width="5" isShadow="true" stroke-opacity="0.05" transform="translate(1, 1)"/><path d="M 5.990196078431373 193.5 L 155.7450980392157 125.775 L 305.5 10.900499999999994 L 455.2549019607843 109.65 L 605.0098039215686 129" fill="none" stroke="rgb(0, 0, 0)" stroke-width="3" isShadow="true" stroke-opacity="0.1" transform="translate(1, 1)"/><path d="M 5.990196078431373 193.5 L 155.7450980392157 125.775 L 305.5 10.900499999999994 L 455.2549019607843 109.65 L 605.0098039215686 129" fill="none" stroke="rgb(0, 0, 0)" stroke-width="1" isShadow="true" stroke-opacity="0.15000000000000002" transform="translate(1, 1)"/><path d="M 5.990196078431373 193.5 L 155.7450980392157 125.775 L 305.5 10.900499999999994 L 455.2549019607843 109.65 L 605.0098039215686 129" fill="none" stroke="#4572A7" stroke-width="2"/><circle cx="605.0098039215686" cy="129" r="4" stroke="#FFFFFF" stroke-width="0" fill="#4572A7"/><circle cx="455.2549019607843" cy="109.65" r="4" stroke="#FFFFFF" stroke-width="0" fill="#4572A7"/><circle cx="305.5" cy="10.900499999999994" r="4" stroke="#FFFFFF" stroke-width="0" fill="#4572A7"/><circle cx="155.7450980392157" cy="125.775" r="4" stroke="#FFFFFF" stroke-width="0" fill="#4572A7"/><circle cx="5.990196078431373" cy="193.5" r="4" stroke="#FFFFFF" stroke-width="0" fill="#4572A7"/></g></g><g class="highcharts-legend" zIndex="7" transform="translate(312, 321)"><rect rx="5" ry="5" fill="none" x="0.5" y="0.5" width="48" height="23" stroke-width="1" stroke="#909090" visibility="visible"/><text x="30" y="18" style="font-family:&quot;Lucida Grande&quot;, &quot;Lucida Sans Unicode&quot;, Verdana, Arial, Helvetica, sans-serif;font-size:12px;cursor:pointer;color:#3E576F;fill:#3E576F;" zIndex="2"><tspan x="30">va</tspan></text><path d="M -21 0 L -5 0" fill="none" stroke-width="2" zIndex="2" stroke="#4572A7" transform="translate(30, 14)"/><circle cx="17" cy="14" r="4" zIndex="3" stroke="#FFFFFF" stroke-width="0" fill="#4572A7"/></g><g class="highcharts-axis" zIndex="7"><text x="57.990196078431374" y="312" style="font-family:&quot;Lucida Grande&quot;, &quot;Lucida Sans Unicode&quot;, Verdana, Arial, Helvetica, sans-serif;font-size:11px;color:#666;line-height:14px;fill:#666;" text-anchor="middle"><tspan x="57.990196078431374">0</tspan></text><text x="132.86764705882354" y="312" style="font-family:&quot;Lucida Grande&quot;, &quot;Lucida Sans Unicode&quot;, Verdana, Arial, Helvetica, sans-serif;font-size:11px;color:#666;line-height:14px;fill:#666;" text-anchor="middle"><tspan x="132.86764705882354">0.5</tspan></text><text x="207.7450980392157" y="312" style="font-family:&quot;Lucida Grande&quot;, &quot;Lucida Sans Unicode&quot;, Verdana, Arial, Helvetica, sans-serif;font-size:11px;color:#666;line-height:14px;fill:#666;" text-anchor="middle"><tspan x="207.7450980392157">1</tspan></text><text x="282.62254901960785" y="312" style="font-family:&quot;Lucida Grande&quot;, &quot;Lucida Sans Unicode&quot;, Verdana, Arial, Helvetica, sans-serif;font-size:11px;color:#666;line-height:14px;fill:#666;" text-anchor="middle"><tspan x="282.62254901960785">1.5</tspan></text><text x="357.5" y="312" style="font-family:&quot;Lucida Grande&quot;, &quot;Lucida Sans Unicode&quot;, Verdana, Arial, Helvetica, sans-serif;font-size:11px;color:#666;line-height:14px;fill:#666;" text-anchor="middle"><tspan x="357.5">2</tspan></text><text x="432.37745098039215" y="312" style="font-family:&quot;Lucida Grande&quot;, &quot;Lucida Sans Unicode&quot;, Verdana, Arial, Helvetica, sans-serif;font-size:11px;color:#666;line-height:14px;fill:#666;" text-anchor="middle"><tspan x="432.37745098039215">2.5</tspan></text><text x="507.2549019607843" y="312" style="font-family:&quot;Lucida Grande&quot;, &quot;Lucida Sans Unicode&quot;, Verdana, Arial, Helvetica, sans-serif;font-size:11px;color:#666;line-height:14px;fill:#666;" text-anchor="middle"><tspan x="507.2549019607843">3</tspan></text><text x="582.1323529411765" y="312" style="font-family:&quot;Lucida Grande&quot;, &quot;Lucida Sans Unicode&quot;, Verdana, Arial, Helvetica, sans-serif;font-size:11px;color:#666;line-height:14px;fill:#666;" text-anchor="middle"><tspan x="582.1323529411765">3.5</tspan></text><text x="657.0098039215686" y="312" style="font-family:&quot;Lucida Grande&quot;, &quot;Lucida Sans Unicode&quot;, Verdana, Arial, Helvetica, sans-serif;font-size:11px;color:#666;line-height:14px;fill:#666;" text-anchor="middle"><tspan x="657.0098039215686">4</tspan></text><path d="M 58.5 298 L 58.5 303" fill="none" stroke="#C0D0E0" stroke-width="1"/><path d="M 133.5 298 L 133.5 303" fill="none" stroke="#C0D0E0" stroke-width="1"/><path d="M 208.5 298 L 208.5 303" fill="none" stroke="#C0D0E0" stroke-width="1"/><path d="M 283.5 298 L 283.5 303" fill="none" stroke="#C0D0E0" stroke-width="1"/><path d="M 358.5 298 L 358.5 303" fill="none" stroke="#C0D0E0" stroke-width="1"/><path d="M 432.5 298 L 432.5 303" fill="none" stroke="#C0D0E0" stroke-width="1"/><path d="M 507.5 298 L 507.5 303" fill="none" stroke="#C0D0E0" stroke-width="1"/><path d="M 582.5 298 L 582.5 303" fill="none" stroke="#C0D0E0" stroke-width="1"/><path d="M 657.5 298 L 657.5 303" fill="none" stroke="#C0D0E0" stroke-width="1"/></g><g class="highcharts-axis" zIndex="7"><text x="44" y="239.6" style="font-family:&quot;Lucida Grande&quot;, &quot;Lucida Sans Unicode&quot;, Verdana, Arial, Helvetica, sans-serif;font-size:11px;width:281px;color:#666;line-height:14px;fill:#666;" text-anchor="end"><tspan x="44">0</tspan></text><text x="44" y="175.1" style="font-family:&quot;Lucida Grande&quot;, &quot;Lucida Sans Unicode&quot;, Verdana, Arial, Helvetica, sans-serif;font-size:11px;width:281px;color:#666;line-height:14px;fill:#666;" text-anchor="end"><tspan x="44">1</tspan></text><text x="44" y="110.6" style="font-family:&quot;Lucida Grande&quot;, &quot;Lucida Sans Unicode&quot;, Verdana, Arial, Helvetica, sans-serif;font-size:11px;width:281px;color:#666;line-height:14px;fill:#666;" text-anchor="end"><tspan x="44">2</tspan></text><text x="44" y="46.1" style="font-family:&quot;Lucida Grande&quot;, &quot;Lucida Sans Unicode&quot;, Verdana, Arial, Helvetica, sans-serif;font-size:11px;width:281px;color:#666;line-height:14px;fill:#666;" text-anchor="end"><tspan x="44">3</tspan></text><text x="44" y="304.1" style="font-family:&quot;Lucida Grande&quot;, &quot;Lucida Sans Unicode&quot;, Verdana, Arial, Helvetica, sans-serif;font-size:11px;width:281px;color:#666;line-height:14px;fill:#666;" text-anchor="end"><tspan x="44">-1</tspan></text></g><text x="24" y="169" style="font-family:&quot;Lucida Grande&quot;, &quot;Lucida Sans Unicode&quot;, Verdana, Arial, Helvetica, sans-serif;font-size:12px;color:#6D869F;font-weight:bold;fill:#6D869F;" zIndex="7" transform="rotate(270, 24, 169)" text-anchor="middle"><tspan x="24">Y-values</tspan></text><path d="M 52 298.5 L 663 298.5" fill="none" stroke="#C0D0E0" stroke-width="1" zIndex="7"/><g class="highcharts-tooltip" zIndex="8" visibility="hidden"><rect rx="5" ry="5" fill="none" x="7" y="7" width="0" height="0" stroke-width="5" fill-opacity="0.85" isShadow="true" stroke="rgb(0, 0, 0)" stroke-opacity="0.05" transform="translate(1, 1)"/><rect rx="5" ry="5" fill="none" x="7" y="7" width="0" height="0" stroke-width="3" fill-opacity="0.85" isShadow="true" stroke="rgb(0, 0, 0)" stroke-opacity="0.1" transform="translate(1, 1)"/><rect rx="5" ry="5" fill="none" x="7" y="7" width="0" height="0" stroke-width="1" fill-opacity="0.85" isShadow="true" stroke="rgb(0, 0, 0)" stroke-opacity="0.15000000000000002" transform="translate(1, 1)"/><rect rx="5" ry="5" fill="rgb(255,255,255)" x="7" y="7" width="0" height="0" stroke-width="2" fill-opacity="0.85"/><text x="12" y="24" style="font-family:&quot;Lucida Grande&quot;, &quot;Lucida Sans Unicode&quot;, Verdana, Arial, Helvetica, sans-serif;font-size:12px;color:#333333;padding:0;white-space:nowrap;fill:#333333;" zIndex="1"><tspan x="12"> </tspan></text></g><g class="highcharts-tracker" zIndex="9" transform="translate(52, 40)"><path d="M -4.009803921568627 193.5 L 5.990196078431373 193.5 L 155.7450980392157 125.775 L 305.5 10.900499999999994 L 455.2549019607843 109.65 L 605.0098039215686 129 L 615.0098039215686 129" fill="none" isTracker="true" stroke-opacity="0.000001" stroke="rgb(192,192,192)" stroke-width="22" visibility="visible" zIndex="9999999" style=""/></g><rect rx="3" ry="3" fill="url(http://www.localhost.com/opentaps/organization/9/?lang=ka#highcharts-6)" x="0.5" y="0.5" width="23" height="19" stroke-width="1" transform="translate(639, 10)" zIndex="19" stroke="#B0B0B0"/><rect rx="3" ry="3" fill="url(http://www.localhost.com/opentaps/organization/9/?lang=ka#highcharts-7)" x="0.5" y="0.5" width="23" height="19" stroke-width="1" transform="translate(613, 10)" zIndex="19" stroke="#B0B0B0"/><path d="M 6 17 L 18 17 18 14 6 14 Z M 12 14 L 9 9 11 9 11 5 13 5 13 9 15 9 Z" fill="#A8BF77" transform="translate(639, 10)" stroke="#A0A0A0" stroke-width="1" zIndex="20"/><path d="M 6 14 L 18 14 18 9 6 9 Z M 9 9 L 9 5 15 5 15 9 Z M 9 14 L 7.5 17 16.5 17 15 14 Z" fill="#B5C9DF" transform="translate(613, 10)" stroke="#A0A0A0" stroke-width="1" zIndex="20"/><rect rx="0" ry="0" fill="rgb(255,255,255)" x="639" y="10" width="24" height="20" stroke-width="0" id="exportButton" fill-opacity="0.001" title="Export to raster or vector image" zIndex="21" style="cursor:pointer;"><title>Export to raster or vector image</title></rect><rect rx="0" ry="0" fill="rgb(255,255,255)" x="613" y="10" width="24" height="20" stroke-width="0" id="printButton" fill-opacity="0.001" title="Print the chart" zIndex="21" style="cursor:pointer;"><title>Print the chart</title></rect></svg>
